<svg width="350" height="350" xmlns="http://www.w3.org/2000/svg"><g><rect width="100%" height="100%" fill="black" /><path fill="#f0b90b" d="m85.07801,175.5l-36.99241,36.8804l-37.08559,-36.8804l36.99241,-36.8804l37.08559,36.8804zm89.91859,-89.6463l63.4555,63.26335l36.99241,-36.8804l-100.44791,-100.23665l-100.54109,100.23665l36.99241,36.8804l63.54868,-63.26335zm126.911,52.76591l-36.99241,36.8804l36.99241,36.8804l36.99241,-36.8804l-36.99241,-36.8804zm-126.911,126.5267l-63.4555,-63.26335l-36.99241,36.8804l100.44791,100.23665l100.44791,-100.23665l-36.99241,-36.8804l-63.4555,63.26335zm0,-52.76591l36.99241,-36.8804l-36.99241,-36.8804l-37.08559,36.8804l37.08559,36.8804z"/></g></svg>