<svg width="350" height="350" xmlns="http://www.w3.org/2000/svg"><rect height="100%" width="100%" y="0" x="0" fill="#ffffff"/><path fill="#3ddb85" d="m247.81383,220.4285c-7.26486,0 -13.17442,-6.09937 -13.17442,-13.59146c0,-7.49209 5.90956,-13.58649 13.17442,-13.58649c7.26607,0 13.17563,6.09315 13.17563,13.58649c0,7.49209 -5.90956,13.59146 -13.17563,13.59146m-145.62765,0c-7.26486,0 -13.17442,-6.09937 -13.17442,-13.59146c0,-7.49209 5.90835,-13.58649 13.17442,-13.58649c7.26486,0 13.17442,6.09315 13.17442,13.58649c0,7.49209 -5.90835,13.59146 -13.17442,13.59146m150.35312,-81.84723l26.33196,-47.03169a5.48392,5.65544 0 0 0 -2.00522,-7.71717a5.48512,5.65669 0 0 0 -7.48311,2.06794l-26.66114,47.62608c-20.38985,-9.59485 -43.28773,-14.94066 -67.72179,-14.94066c-24.43406,0 -47.33194,5.34581 -67.72058,14.94066l-26.66235,-47.62608a5.48512,5.65669 0 0 0 -7.48311,-2.06794a5.4803,5.65171 0 0 0 -2.00522,7.71717l26.33196,47.03169c-45.21578,25.3612 -76.14059,72.56822 -80.6647,128.34048l316.408,0c-4.52773,-55.77101 -35.45253,-102.97928 -80.6647,-128.34172"/></svg>